<svg width="238" height="239" viewBox="0 0 238 239" fill="none" xmlns="http://www.w3.org/2000/svg">
<path opacity="0.65" d="M118.786 212.267C67.6565 212.267 25.8231 170.95 25.8231 119.303C25.8231 68.1733 67.1401 26.3397 118.786 26.3397H177.147C196.256 26.3397 211.233 41.8336 211.233 60.4263V119.303C211.749 170.433 169.916 212.267 118.786 212.267Z" fill="#3F7DE0"/>
<path opacity="0.5" d="M144.609 185.927C93.4797 185.927 51.6462 144.61 51.6462 92.9635C51.6462 41.8336 92.9632 0 144.609 0H202.97C222.079 0.516464 237.573 16.0104 237.573 34.6031V93.48C237.573 144.61 196.256 185.927 144.609 185.927Z" fill="#00DFFC"/>
<path opacity="0.7" d="M92.9632 238.09C41.317 238.09 0 196.773 0 145.126C0 93.9964 41.317 52.1629 92.9632 52.1629H151.323C170.432 52.1629 185.41 67.6568 185.41 86.2495V145.126C185.41 196.773 144.093 238.09 92.9632 238.09Z" fill="#3F7DE0"/>
<path d="M89.8644 176.114V95.0294H142.544V110.007H109.49V127.567H134.28V142.544H109.49V176.114H89.8644V176.114Z" fill="white"/>
</svg>
