<svg width="79" height="79" viewBox="0 0 79 79" fill="none" xmlns="http://www.w3.org/2000/svg">
<path d="M39.4043 78.8086C44.8079 78.8086 49.8861 77.7832 54.6387 75.7324C59.3913 73.6816 63.5824 70.8333 67.212 67.1875C70.8415 63.5416 73.6898 59.3424 75.7569 54.5898C77.8239 49.8372 78.8575 44.7754 78.8575 39.4043C78.8575 34.0332 77.8239 28.9714 75.7569 24.2187C73.6898 19.4661 70.8333 15.2669 67.1875 11.6211C63.5417 7.97523 59.3425 5.12694 54.5899 3.0762C49.8373 1.0254 44.7591 0 39.3555 0C33.9844 0 28.9226 1.0254 24.17 3.0762C19.4174 5.12694 15.2344 7.97523 11.6211 11.6211C8.00779 15.2669 5.16763 19.4661 3.10058 24.2187C1.03353 28.9714 0 34.0332 0 39.4043C0 44.7754 1.03353 49.8372 3.10058 54.5898C5.16763 59.3424 8.01593 63.5416 11.6455 67.1875C15.2751 70.8333 19.4662 73.6816 24.2188 75.7324C28.9714 77.7832 34.0332 78.8086 39.4043 78.8086Z" fill="#6A7785"/>
<path d="M39.4043 72.2168C36.6048 72.2168 33.8135 71.8506 31.0303 71.1182C28.2471 70.3857 25.5941 69.3034 23.0713 67.8711C20.5485 66.4388 18.2942 64.681 16.3086 62.5977C17.6758 60.4818 19.515 58.6751 21.8262 57.1777C24.1374 55.6803 26.7904 54.5328 29.7852 53.7353C32.78 52.9378 35.9863 52.5391 39.4043 52.5391C42.7571 52.5391 45.931 52.9297 48.9258 53.7109C51.9206 54.4922 54.5817 55.6315 56.9092 57.1289C59.2366 58.6263 61.1002 60.4492 62.5 62.5977C60.5143 64.681 58.2601 66.4388 55.7373 67.8711C53.2145 69.3034 50.5534 70.3857 47.7539 71.1182C44.9544 71.8506 42.1712 72.2168 39.4043 72.2168ZM39.4043 46.0937C36.9303 46.0612 34.7005 45.4183 32.7149 44.165C30.7292 42.9118 29.1504 41.2028 27.9786 39.0381C26.8066 36.8734 26.2207 34.4075 26.2207 31.6406C26.2207 29.069 26.8066 26.709 27.9786 24.5605C29.1504 22.4121 30.7292 20.695 32.7149 19.4092C34.7005 18.1234 36.9303 17.4805 39.4043 17.4805C41.8457 17.4805 44.0592 18.1234 46.045 19.4092C48.0306 20.695 49.6094 22.4121 50.7813 24.5605C51.9531 26.709 52.5391 29.069 52.5391 31.6406C52.5391 34.4075 51.9613 36.8815 50.8057 39.0625C49.6501 41.2435 48.0713 42.9688 46.0694 44.2383C44.0674 45.5078 41.8457 46.1263 39.4043 46.0937Z" fill="white"/>
</svg>
