<svg width="79" height="79" viewBox="0 0 79 79" fill="none" xmlns="http://www.w3.org/2000/svg">
<path d="M39.4043 78.8086C44.8079 78.8086 49.8861 77.7832 54.6387 75.7324C59.3913 73.6816 63.5824 70.8333 67.212 67.1875C70.8415 63.5416 73.6898 59.3424 75.7569 54.5898C77.8239 49.8372 78.8575 44.7754 78.8575 39.4043C78.8575 34.0332 77.8239 28.9714 75.7569 24.2187C73.6898 19.4661 70.8333 15.2669 67.1875 11.6211C63.5417 7.97523 59.3425 5.12694 54.5899 3.0762C49.8373 1.0254 44.7591 0 39.3555 0C33.9844 0 28.9226 1.0254 24.17 3.0762C19.4174 5.12694 15.2344 7.97523 11.6211 11.6211C8.00779 15.2669 5.16763 19.4661 3.10058 24.2187C1.03353 28.9714 0 34.0332 0 39.4043C0 44.7754 1.03353 49.8372 3.10058 54.5898C5.16763 59.3424 8.01593 63.5416 11.6455 67.1875C15.2751 70.8333 19.4662 73.6816 24.2188 75.7324C28.9714 77.7832 34.0332 78.8086 39.4043 78.8086Z" fill="#6A7785"/>
<path d="M38.4527 60C37.3175 60 36.4583 59.7348 35.875 59.2045C35.2917 58.6741 35 57.98 35 57.1224V36.8776C35 36.02 35.2917 35.326 35.875 34.7956C36.4583 34.2652 37.3175 34 38.4527 34C39.6193 34 40.5022 34.2539 41.1014 34.7618C41.7005 35.2696 42 35.9748 42 36.8776V57.1224C42 58.0252 41.7005 58.7305 41.1014 59.2383C40.5022 59.7461 39.6193 60 38.4527 60Z" fill="white"/>
<circle cx="38.5" cy="22.5" r="3.5" fill="white"/>
</svg>
