<?xml version="1.0" encoding="UTF-8"?>
<!--Generator: Apple Native CoreSVG 175-->
<!DOCTYPE svg
PUBLIC "-//W3C//DTD SVG 1.1//EN"
       "http://www.w3.org/Graphics/SVG/1.1/DTD/svg11.dtd">
<svg version="1.1" xmlns="http://www.w3.org/2000/svg" xmlns:xlink="http://www.w3.org/1999/xlink" width="3300" height="2200">
 <!--glyph: "uni100AF0.medium", point size: 100.0, font version: "17.1d1e1", template writer version: "65.1"-->
 <g id="Notes">
  <rect height="2200" id="artboard" style="fill:white;opacity:1" width="3300" x="0" y="0"/>
  <line style="fill:none;stroke:black;opacity:1;stroke-width:0.5;" x1="263" x2="3036" y1="292" y2="292"/>
  <text style="stroke:none;fill:black;font-family:sans-serif;font-size:13;font-weight:bold;" transform="matrix(1 0 0 1 263 322)">Weight/Scale Variations</text>
  <text style="stroke:none;fill:black;font-family:sans-serif;font-size:13;text-anchor:middle;" transform="matrix(1 0 0 1 559.711 322)">Ultralight</text>
  <text style="stroke:none;fill:black;font-family:sans-serif;font-size:13;text-anchor:middle;" transform="matrix(1 0 0 1 856.422 322)">Thin</text>
  <text style="stroke:none;fill:black;font-family:sans-serif;font-size:13;text-anchor:middle;" transform="matrix(1 0 0 1 1153.13 322)">Light</text>
  <text style="stroke:none;fill:black;font-family:sans-serif;font-size:13;text-anchor:middle;" transform="matrix(1 0 0 1 1449.84 322)">Regular</text>
  <text style="stroke:none;fill:black;font-family:sans-serif;font-size:13;text-anchor:middle;" transform="matrix(1 0 0 1 1746.56 322)">Medium</text>
  <text style="stroke:none;fill:black;font-family:sans-serif;font-size:13;text-anchor:middle;" transform="matrix(1 0 0 1 2043.27 322)">Semibold</text>
  <text style="stroke:none;fill:black;font-family:sans-serif;font-size:13;text-anchor:middle;" transform="matrix(1 0 0 1 2339.98 322)">Bold</text>
  <text style="stroke:none;fill:black;font-family:sans-serif;font-size:13;text-anchor:middle;" transform="matrix(1 0 0 1 2636.69 322)">Heavy</text>
  <text style="stroke:none;fill:black;font-family:sans-serif;font-size:13;text-anchor:middle;" transform="matrix(1 0 0 1 2933.4 322)">Black</text>
  <line style="fill:none;stroke:black;opacity:1;stroke-width:0.5;" x1="263" x2="3036" y1="1903" y2="1903"/>
  <g transform="matrix(1 0 0 1 263 1933)">
   <path d="M9.24805 0.830078Q10.8691 0.830078 12.2949 0.214844Q13.7207-0.400391 14.8096-1.49414Q15.8984-2.58789 16.5186-4.01367Q17.1387-5.43945 17.1387-7.05078Q17.1387-8.66211 16.5186-10.0879Q15.8984-11.5137 14.8047-12.6074Q13.7109-13.7012 12.2852-14.3164Q10.8594-14.9316 9.23828-14.9316Q7.62695-14.9316 6.20117-14.3164Q4.77539-13.7012 3.69141-12.6074Q2.60742-11.5137 1.9873-10.0879Q1.36719-8.66211 1.36719-7.05078Q1.36719-5.43945 1.9873-4.01367Q2.60742-2.58789 3.69629-1.49414Q4.78516-0.400391 6.21094 0.214844Q7.63672 0.830078 9.24805 0.830078ZM9.24805-0.654297Q7.91992-0.654297 6.7627-1.14746Q5.60547-1.64062 4.73145-2.51953Q3.85742-3.39844 3.36426-4.56055Q2.87109-5.72266 2.87109-7.05078Q2.87109-8.37891 3.35938-9.54102Q3.84766-10.7031 4.72168-11.582Q5.5957-12.4609 6.75293-12.9541Q7.91016-13.4473 9.23828-13.4473Q10.5762-13.4473 11.7334-12.9541Q12.8906-12.4609 13.7695-11.582Q14.6484-10.7031 15.1465-9.54102Q15.6445-8.37891 15.6445-7.05078Q15.6445-5.72266 15.1514-4.56055Q14.6582-3.39844 13.7842-2.51953Q12.9102-1.64062 11.748-1.14746Q10.5859-0.654297 9.24805-0.654297ZM5.6543-7.05078Q5.6543-6.72852 5.85938-6.52832Q6.06445-6.32812 6.40625-6.32812L8.51562-6.32812L8.51562-4.20898Q8.51562-3.88672 8.71094-3.67676Q8.90625-3.4668 9.23828-3.4668Q9.56055-3.4668 9.77051-3.67676Q9.98047-3.88672 9.98047-4.20898L9.98047-6.32812L12.0898-6.32812Q12.4219-6.32812 12.627-6.52832Q12.832-6.72852 12.832-7.05078Q12.832-7.38281 12.627-7.58789Q12.4219-7.79297 12.0898-7.79297L9.98047-7.79297L9.98047-9.90234Q9.98047-10.2344 9.77051-10.4443Q9.56055-10.6543 9.23828-10.6543Q8.90625-10.6543 8.71094-10.4443Q8.51562-10.2344 8.51562-9.90234L8.51562-7.79297L6.40625-7.79297Q6.06445-7.79297 5.85938-7.58789Q5.6543-7.38281 5.6543-7.05078Z"/>
  </g>
  <g transform="matrix(1 0 0 1 281.867 1933)">
   <path d="M11.709 2.91016Q13.75 2.91016 15.5518 2.12891Q17.3535 1.34766 18.7305-0.0292969Q20.1074-1.40625 20.8887-3.20801Q21.6699-5.00977 21.6699-7.05078Q21.6699-9.0918 20.8887-10.8936Q20.1074-12.6953 18.7305-14.0723Q17.3535-15.4492 15.5469-16.2305Q13.7402-17.0117 11.6992-17.0117Q9.6582-17.0117 7.85645-16.2305Q6.05469-15.4492 4.68262-14.0723Q3.31055-12.6953 2.5293-10.8936Q1.74805-9.0918 1.74805-7.05078Q1.74805-5.00977 2.5293-3.20801Q3.31055-1.40625 4.6875-0.0292969Q6.06445 1.34766 7.86621 2.12891Q9.66797 2.91016 11.709 2.91016ZM11.709 1.25Q9.98047 1.25 8.47656 0.605469Q6.97266-0.0390625 5.83496-1.17676Q4.69727-2.31445 4.05762-3.81836Q3.41797-5.32227 3.41797-7.05078Q3.41797-8.7793 4.05762-10.2832Q4.69727-11.7871 5.83008-12.9297Q6.96289-14.0723 8.4668-14.7119Q9.9707-15.3516 11.6992-15.3516Q13.4277-15.3516 14.9316-14.7119Q16.4355-14.0723 17.5781-12.9297Q18.7207-11.7871 19.3652-10.2832Q20.0098-8.7793 20.0098-7.05078Q20.0098-5.32227 19.3701-3.81836Q18.7305-2.31445 17.5928-1.17676Q16.4551-0.0390625 14.9463 0.605469Q13.4375 1.25 11.709 1.25ZM7.17773-7.05078Q7.17773-6.69922 7.41211-6.47461Q7.64648-6.25 8.01758-6.25L10.8887-6.25L10.8887-3.36914Q10.8887-2.99805 11.1133-2.76855Q11.3379-2.53906 11.6895-2.53906Q12.0605-2.53906 12.29-2.76855Q12.5195-2.99805 12.5195-3.36914L12.5195-6.25L15.4004-6.25Q15.7715-6.25 16.001-6.47461Q16.2305-6.69922 16.2305-7.05078Q16.2305-7.42188 16.001-7.65137Q15.7715-7.88086 15.4004-7.88086L12.5195-7.88086L12.5195-10.752Q12.5195-11.1328 12.29-11.3623Q12.0605-11.5918 11.6895-11.5918Q11.3379-11.5918 11.1133-11.3574Q10.8887-11.123 10.8887-10.752L10.8887-7.88086L8.01758-7.88086Q7.63672-7.88086 7.40723-7.65137Q7.17773-7.42188 7.17773-7.05078Z"/>
  </g>
  <g transform="matrix(1 0 0 1 305.646 1933)">
   <path d="M14.9707 5.66406Q17.0605 5.66406 18.96 5.01465Q20.8594 4.36523 22.4512 3.19336Q24.043 2.02148 25.2197 0.429688Q26.3965-1.16211 27.0459-3.06641Q27.6953-4.9707 27.6953-7.05078Q27.6953-9.14062 27.0459-11.04Q26.3965-12.9395 25.2197-14.5312Q24.043-16.123 22.4512-17.2998Q20.8594-18.4766 18.9551-19.126Q17.0508-19.7754 14.9609-19.7754Q12.8711-19.7754 10.9717-19.126Q9.07227-18.4766 7.48535-17.2998Q5.89844-16.123 4.72168-14.5312Q3.54492-12.9395 2.90039-11.04Q2.25586-9.14062 2.25586-7.05078Q2.25586-4.9707 2.90527-3.06641Q3.55469-1.16211 4.72656 0.429688Q5.89844 2.02148 7.49023 3.19336Q9.08203 4.36523 10.9814 5.01465Q12.8809 5.66406 14.9707 5.66406ZM14.9707 3.84766Q13.1641 3.84766 11.5283 3.2959Q9.89258 2.74414 8.53516 1.74805Q7.17773 0.751953 6.17676-0.610352Q5.17578-1.97266 4.62891-3.6084Q4.08203-5.24414 4.08203-7.05078Q4.08203-8.86719 4.62891-10.5029Q5.17578-12.1387 6.17188-13.501Q7.16797-14.8633 8.52539-15.8594Q9.88281-16.8555 11.5186-17.4023Q13.1543-17.9492 14.9609-17.9492Q16.7773-17.9492 18.4131-17.4023Q20.0488-16.8555 21.4111-15.8594Q22.7734-14.8633 23.7695-13.501Q24.7656-12.1387 25.3174-10.5029Q25.8691-8.86719 25.8691-7.05078Q25.8789-5.24414 25.332-3.6084Q24.7852-1.97266 23.7842-0.610352Q22.7832 0.751953 21.4209 1.74805Q20.0586 2.74414 18.4229 3.2959Q16.7871 3.84766 14.9707 3.84766ZM9.19922-7.05078Q9.19922-6.66992 9.45801-6.4209Q9.7168-6.17188 10.1172-6.17188L14.0625-6.17188L14.0625-2.2168Q14.0625-1.81641 14.3115-1.55762Q14.5605-1.29883 14.9512-1.29883Q15.3516-1.29883 15.6104-1.55273Q15.8691-1.80664 15.8691-2.2168L15.8691-6.17188L19.8242-6.17188Q20.2246-6.17188 20.4785-6.4209Q20.7324-6.66992 20.7324-7.05078Q20.7324-7.46094 20.4785-7.71484Q20.2246-7.96875 19.8242-7.96875L15.8691-7.96875L15.8691-11.9141Q15.8691-12.3242 15.6104-12.583Q15.3516-12.8418 14.9512-12.8418Q14.5605-12.8418 14.3115-12.583Q14.0625-12.3242 14.0625-11.9141L14.0625-7.96875L10.1172-7.96875Q9.70703-7.96875 9.45312-7.71484Q9.19922-7.46094 9.19922-7.05078Z"/>
  </g>
  <text style="stroke:none;fill:black;font-family:sans-serif;font-size:13;font-weight:bold;" transform="matrix(1 0 0 1 263 1953)">Design Variations</text>
  <text style="stroke:none;fill:black;font-family:sans-serif;font-size:13;" transform="matrix(1 0 0 1 263 1971)">Symbols are supported in up to nine weights and three scales.</text>
  <text style="stroke:none;fill:black;font-family:sans-serif;font-size:13;" transform="matrix(1 0 0 1 263 1989)">For optimal layout with text and other symbols, vertically align</text>
  <text style="stroke:none;fill:black;font-family:sans-serif;font-size:13;" transform="matrix(1 0 0 1 263 2007)">symbols with the adjacent text.</text>
  <line style="fill:none;stroke:#00AEEF;stroke-width:0.5;opacity:1.0;" x1="776" x2="776" y1="1919" y2="1933"/>
  <g transform="matrix(1 0 0 1 776 1933)">
   <path d="M3.31055 0.15625Q3.70117 0.15625 3.91602-0.00976562Q4.13086-0.175781 4.26758-0.585938L5.52734-4.0332L11.2891-4.0332L12.5488-0.585938Q12.6855-0.175781 12.9004-0.00976562Q13.1152 0.15625 13.4961 0.15625Q13.8867 0.15625 14.1162-0.0585938Q14.3457-0.273438 14.3457-0.644531Q14.3457-0.869141 14.2383-1.17188L9.6582-13.3691Q9.48242-13.8184 9.17969-14.043Q8.87695-14.2676 8.4082-14.2676Q7.5-14.2676 7.17773-13.3789L2.59766-1.16211Q2.49023-0.859375 2.49023-0.634766Q2.49023-0.263672 2.70996-0.0537109Q2.92969 0.15625 3.31055 0.15625ZM6.00586-5.51758L8.37891-12.0898L8.42773-12.0898L10.8008-5.51758Z"/>
  </g>
  <line style="fill:none;stroke:#00AEEF;stroke-width:0.5;opacity:1.0;" x1="793.197" x2="793.197" y1="1919" y2="1933"/>
  <text style="stroke:none;fill:black;font-family:sans-serif;font-size:13;font-weight:bold;" transform="matrix(1 0 0 1 776 1953)">Margins</text>
  <text style="stroke:none;fill:black;font-family:sans-serif;font-size:13;" transform="matrix(1 0 0 1 776 1971)">Leading and trailing margins on the left and right side of each symbol</text>
  <text style="stroke:none;fill:black;font-family:sans-serif;font-size:13;" transform="matrix(1 0 0 1 776 1989)">can be adjusted by modifying the x-location of the margin guidelines.</text>
  <text style="stroke:none;fill:black;font-family:sans-serif;font-size:13;" transform="matrix(1 0 0 1 776 2007)">Modifications are automatically applied proportionally to all</text>
  <text style="stroke:none;fill:black;font-family:sans-serif;font-size:13;" transform="matrix(1 0 0 1 776 2025)">scales and weights.</text>
  <g transform="matrix(1 0 0 1 1289 1933)">
   <path d="M2.8418 1.86523L4.54102 3.57422Q5.18555 4.22852 5.90332 4.17969Q6.62109 4.13086 7.31445 3.35938L18.0078-8.42773L17.041-9.4043L6.42578 2.27539Q6.16211 2.57812 5.89355 2.61719Q5.625 2.65625 5.27344 2.30469L4.10156 1.14258Q3.75 0.791016 3.79395 0.522461Q3.83789 0.253906 4.14062-0.0195312L15.6152-10.8203L14.6387-11.7871L3.04688-0.898438Q2.30469-0.214844 2.25098 0.498047Q2.19727 1.21094 2.8418 1.86523ZM9.25781-16.3281Q8.94531-16.0254 8.90625-15.6348Q8.86719-15.2441 9.04297-14.9512Q9.21875-14.6777 9.55566-14.541Q9.89258-14.4043 10.3809-14.5215Q11.4746-14.7754 12.5977-14.7314Q13.7207-14.6875 14.7949-13.9844L14.209-12.5293Q13.9551-11.9043 14.0674-11.4404Q14.1797-10.9766 14.5801-10.5664L16.875-8.25195Q17.2363-7.88086 17.5781-7.82227Q17.9199-7.76367 18.3398-7.8418L19.4043-8.03711L20.0684-7.36328L20.0293-6.80664Q20-6.43555 20.1221-6.12305Q20.2441-5.81055 20.6055-5.44922L21.3672-4.70703Q21.7285-4.3457 22.1533-4.33105Q22.5781-4.31641 22.9297-4.66797L25.8398-7.58789Q26.1914-7.93945 26.1816-8.35449Q26.1719-8.76953 25.8105-9.13086L25.0391-9.89258Q24.6875-10.2539 24.3799-10.3857Q24.0723-10.5176 23.7109-10.4883L23.1348-10.4395L22.4902-11.0742L22.7344-12.1973Q22.832-12.6172 22.6953-12.9834Q22.5586-13.3496 22.1191-13.7891L19.9219-15.9766Q18.6719-17.2168 17.2607-17.8369Q15.8496-18.457 14.4189-18.4814Q12.9883-18.5059 11.665-17.959Q10.3418-17.4121 9.25781-16.3281ZM10.752-15.957Q11.6602-16.6211 12.7002-16.9043Q13.7402-17.1875 14.8047-17.085Q15.8691-16.9824 16.8701-16.5137Q17.8711-16.0449 18.7012-15.2051L21.1328-12.793Q21.3086-12.6172 21.3525-12.4512Q21.3965-12.2852 21.3379-12.0312L21.0156-10.5469L22.5195-9.0625L23.5059-9.12109Q23.6914-9.13086 23.7891-9.09668Q23.8867-9.0625 24.0332-8.91602L24.6094-8.33984L22.168-5.89844L21.5918-6.47461Q21.4453-6.62109 21.4062-6.71875Q21.3672-6.81641 21.377-7.01172L21.4453-7.98828L19.9512-9.47266L18.4277-9.21875Q18.1836-9.16992 18.042-9.2041Q17.9004-9.23828 17.7148-9.41406L15.7129-11.416Q15.5176-11.5918 15.4932-11.7529Q15.4688-11.9141 15.5859-12.1875L16.4648-14.2773Q15.293-15.3711 13.8281-15.791Q12.3633-16.2109 10.8398-15.7617Q10.7227-15.7324 10.6885-15.8057Q10.6543-15.8789 10.752-15.957Z"/>
  </g>
  <text style="stroke:none;fill:black;font-family:sans-serif;font-size:13;font-weight:bold;" transform="matrix(1 0 0 1 1289 1953)">Exporting</text>
  <text style="stroke:none;fill:black;font-family:sans-serif;font-size:13;" transform="matrix(1 0 0 1 1289 1971)">Symbols should be outlined when exporting to ensure the</text>
  <text style="stroke:none;fill:black;font-family:sans-serif;font-size:13;" transform="matrix(1 0 0 1 1289 1989)">design is preserved when submitting to Xcode.</text>
  <text id="template-version" style="stroke:none;fill:black;font-family:sans-serif;font-size:13;text-anchor:end;" transform="matrix(1 0 0 1 3036 1933)">Template v.2.0</text>
  <text style="stroke:none;fill:black;font-family:sans-serif;font-size:13;text-anchor:end;" transform="matrix(1 0 0 1 3036 1951)">Requires Xcode 12 or greater</text>
  <text id="descriptive-name" style="stroke:none;fill:black;font-family:sans-serif;font-size:13;text-anchor:end;" transform="matrix(1 0 0 1 3036 1969)">Generated from line.diagonal</text>
  <text style="stroke:none;fill:black;font-family:sans-serif;font-size:13;text-anchor:end;" transform="matrix(1 0 0 1 3036 1987)">Typeset at 100 points</text>
  <text style="stroke:none;fill:black;font-family:sans-serif;font-size:13;" transform="matrix(1 0 0 1 263 726)">Small</text>
  <text style="stroke:none;fill:black;font-family:sans-serif;font-size:13;" transform="matrix(1 0 0 1 263 1156)">Medium</text>
  <text style="stroke:none;fill:black;font-family:sans-serif;font-size:13;" transform="matrix(1 0 0 1 263 1586)">Large</text>
 </g>
 <g id="Guides">
  <g id="H-reference" style="fill:#27AAE1;stroke:none;" transform="matrix(1 0 0 1 339 696)">
   <path d="M0.993347 0L3.6377 0L29.3282-67.1326L30.0301-67.1326L30.0301-70.459L28.1227-70.459ZM11.6882-24.4797L46.9818-24.4797L46.2311-26.7288L12.4382-26.7288ZM55.1193 0L57.7637 0L30.6381-70.459L29.4327-70.459L29.4327-67.1326Z"/>
  </g>
  <line id="Baseline-S" style="fill:none;stroke:#27AAE1;opacity:1;stroke-width:0.5;" x1="263" x2="3036" y1="696" y2="696"/>
  <line id="Capline-S" style="fill:none;stroke:#27AAE1;opacity:1;stroke-width:0.5;" x1="263" x2="3036" y1="625.541" y2="625.541"/>
  <g id="H-reference" style="fill:#27AAE1;stroke:none;" transform="matrix(1 0 0 1 339 1126)">
   <path d="M0.993347 0L3.6377 0L29.3282-67.1326L30.0301-67.1326L30.0301-70.459L28.1227-70.459ZM11.6882-24.4797L46.9818-24.4797L46.2311-26.7288L12.4382-26.7288ZM55.1193 0L57.7637 0L30.6381-70.459L29.4327-70.459L29.4327-67.1326Z"/>
  </g>
  <line id="Baseline-M" style="fill:none;stroke:#27AAE1;opacity:1;stroke-width:0.5;" x1="263" x2="3036" y1="1126" y2="1126"/>
  <line id="Capline-M" style="fill:none;stroke:#27AAE1;opacity:1;stroke-width:0.5;" x1="263" x2="3036" y1="1055.54" y2="1055.54"/>
  <g id="H-reference" style="fill:#27AAE1;stroke:none;" transform="matrix(1 0 0 1 339 1556)">
   <path d="M0.993347 0L3.6377 0L29.3282-67.1326L30.0301-67.1326L30.0301-70.459L28.1227-70.459ZM11.6882-24.4797L46.9818-24.4797L46.2311-26.7288L12.4382-26.7288ZM55.1193 0L57.7637 0L30.6381-70.459L29.4327-70.459L29.4327-67.1326Z"/>
  </g>
  <line id="Baseline-L" style="fill:none;stroke:#27AAE1;opacity:1;stroke-width:0.5;" x1="263" x2="3036" y1="1556" y2="1556"/>
  <line id="Capline-L" style="fill:none;stroke:#27AAE1;opacity:1;stroke-width:0.5;" x1="263" x2="3036" y1="1485.54" y2="1485.54"/>
  <line id="left-margin" style="fill:none;stroke:#00AEEF;stroke-width:0.5;opacity:1.0;" x1="1400.14" x2="1400.14" y1="1030.79" y2="1150.12"/>
  <line id="right-margin" style="fill:none;stroke:#00AEEF;stroke-width:0.5;opacity:1.0;" x1="1499.55" x2="1499.55" y1="1030.79" y2="1150.12"/>
 </g>
 <g id="Symbols">
  <g id="Black-L" transform="matrix(1 0 0 1 2866.07 1556)">
   <path d="M17.4302 0.529501Q14.4756 3.48531 14.4756 7.62319Q14.4756 11.7611 17.4302 14.7157Q20.386 17.6131 24.4953 17.6423Q28.6046 17.6715 31.5604 14.7157L117.221-70.9653Q120.176-73.9211 120.176-78.059Q120.175-82.1968 117.221-85.1515Q114.286-88.0489 110.166-88.0781Q106.046-88.1073 103.112-85.1515Z"/>
  </g>
  <g id="Heavy-L" transform="matrix(1 0 0 1 2570.25 1556)">
   <path d="M17.0563 1.78879Q14.4756 4.3751 14.4756 8.0001Q14.4756 11.6251 17.0563 14.2057Q19.6426 16.7475 23.2481 16.7698Q26.8536 16.7921 29.4399 14.2057L115.822-72.2063Q118.408-74.7927 118.405-78.4177Q118.403-82.0426 115.822-84.6234Q113.266-87.165 109.645-87.1874Q106.025-87.2097 103.474-84.6234Z"/>
  </g>
  <g id="Bold-L" transform="matrix(1 0 0 1 2274.78 1556)">
   <path d="M16.5953 3.19214Q14.4756 5.32494 14.4756 8.316Q14.4756 11.3071 16.5953 13.4265Q18.7281 15.5303 21.7111 15.5449Q24.6941 15.5595 26.8269 13.4265L113.802-73.5866Q115.935-75.7196 115.928-78.7105Q115.922-81.7015 113.802-83.8212Q111.707-85.9248 108.705-85.9394Q105.703-85.954 103.622-83.8212Z"/>
  </g>
  <g id="Semibold-L" transform="matrix(1 0 0 1 1978.92 1556)">
   <path d="M16.2774 4.1596Q14.4756 5.97975 14.4756 8.53377Q14.4756 11.0878 16.2774 12.8893Q18.0976 14.6912 20.6515 14.7005Q23.2054 14.7098 25.0255 12.8893L112.41-74.5381Q114.23-76.3586 114.221-78.9124Q114.212-81.4663 112.41-83.2681Q110.633-85.0697 108.057-85.079Q105.482-85.0883 103.723-83.2681Z"/>
  </g>
  <g id="Medium-L" transform="matrix(1 0 0 1 1682.86 1556)">
   <path d="M16.0364 4.89317Q14.4756 6.47626 14.4756 8.6989Q14.4756 10.9215 16.0364 12.482Q17.6195 14.0549 19.848 14.0602Q22.0765 14.0654 23.6596 12.482L111.354-75.2596Q112.937-76.8431 112.926-79.0655Q112.915-81.288 111.354-82.8488Q109.818-84.4214 107.566-84.4266Q105.314-84.4319 103.801-82.8488Z"/>
  </g>
  <g id="Regular-L" transform="matrix(1 0 0 1 1386.99 1556)">
   <path d="M15.722 5.85Q14.4756 7.12387 14.4756 8.91429Q14.4756 10.7047 15.722 11.9507Q16.9959 13.225 18.8 13.225Q20.6042 13.225 21.878 11.9507L109.977-76.2007Q111.251-77.475 111.237-79.2652Q111.223-81.0554 109.977-82.3018Q108.756-83.5757 106.925-83.5757Q105.095-83.5757 103.901-82.3018Z"/>
  </g>
  <g id="Light-L" transform="matrix(1 0 0 1 1092.06 1556)">
   <path d="M15.4168 5.81184Q14.4756 6.79937 14.4756 8.16042Q14.4756 9.52148 15.4168 10.4619Q16.4043 11.4502 17.7885 11.4502Q19.1727 11.4502 20.1603 10.4619L106.733-76.1433Q107.72-77.1316 107.697-78.4923Q107.673-79.8529 106.733-80.7941Q105.779-81.7816 104.377-81.7816Q102.976-81.7816 102.069-80.7941Z"/>
  </g>
  <g id="Thin-L" transform="matrix(1 0 0 1 797.695 1556)">
   <path d="M15.013 5.76138Q14.4756 6.37019 14.4756 7.16338Q14.4756 7.95657 15.013 8.49282Q15.6219 9.10284 16.4507 9.10284Q17.2796 9.10284 17.8884 8.49282L102.442-76.0674Q103.051-76.6774 103.014-77.47Q102.978-78.2626 102.442-78.8Q101.841-79.4088 101.008-79.4088Q100.174-79.4088 99.6458-78.8Z"/>
  </g>
  <g id="Ultralight-L" transform="matrix(1 0 0 1 502.186 1556)">
   <path d="M14.8063 5.73553Q14.4756 6.15036 14.4756 6.6527Q14.4756 7.15504 14.8063 7.48427Q15.2211 7.90054 15.7655 7.90054Q16.3099 7.90054 16.7248 7.48427L100.244-76.0285Q100.659-76.4448 100.616-76.9464Q100.573-77.448 100.244-77.7787Q99.8241-78.1935 99.2816-78.1935Q98.739-78.1935 98.4046-77.7787Z"/>
  </g>
  <g id="Black-M" transform="matrix(1 0 0 1 2880.72 1126)">
   <path d="M13.7839-8.61294Q11.2148-6.04418 11.2148-2.45578Q11.2148 1.13262 13.7839 3.70167Q16.3527 6.21333 19.9124 6.24188Q23.4721 6.27043 26.0408 3.70167L91.5781-61.8411Q94.1469-64.4099 94.147-67.9983Q94.1472-71.5867 91.5781-74.1557Q89.0149-76.6674 85.4524-76.6959Q81.8899-76.7245 79.3264-74.1557Z"/>
  </g>
  <g id="Heavy-M" transform="matrix(1 0 0 1 2584.71 1126)">
   <path d="M13.4465-7.37838Q11.2148-5.14442 11.2148-2.01778Q11.2148 1.10885 13.4465 3.34052Q15.6805 5.5309 18.7865 5.55271Q21.8924 5.57452 24.1264 3.34052L90.5102-63.0596Q92.7441-65.2936 92.743-68.4202Q92.7418-71.5469 90.5102-73.7786Q88.2926-75.9689 85.1784-75.9907Q82.0643-76.0125 79.849-73.7786Z"/>
  </g>
  <g id="Bold-M" transform="matrix(1 0 0 1 2288.79 1126)">
   <path d="M13.0692-5.99734Q11.2148-4.13791 11.2148-1.52782Q11.2148 1.08226 13.0692 2.93652Q14.9286 4.76749 17.527 4.78176Q20.1253 4.79604 21.9848 2.93652L89.3155-64.4227Q91.1749-66.2822 91.1723-68.8923Q91.1698-71.5023 89.3155-73.3567Q87.4846-75.1875 84.872-75.2018Q82.2593-75.2161 80.4336-73.3567Z"/>
  </g>
  <g id="Semibold-M" transform="matrix(1 0 0 1 1992.62 1126)">
   <path d="M12.809-5.04526Q11.2148-3.44403 11.2148-1.19005Q11.2148 1.06393 12.809 2.658Q14.4103 4.2412 16.6587 4.25028Q18.9071 4.25936 20.5083 2.658L88.4919-65.3624Q90.0931-66.9638 90.0896-69.2177Q90.086-71.4716 88.4919-73.0658Q86.9277-74.6489 84.6607-74.658Q82.3937-74.667 80.8366-73.0658Z"/>
  </g>
  <g id="Medium-M" transform="matrix(1 0 0 1 1696.32 1126)">
   <path d="M12.6118-4.32336Q11.2148-2.9179 11.2148-0.933932Q11.2148 1.05004 12.6118 2.44682Q14.0172 3.84215 16.0003 3.84729Q17.9834 3.85242 19.3889 2.44682L87.8674-66.0749Q89.2729-67.4805 89.2685-69.4644Q89.2642-71.4483 87.8674-72.8453Q86.5053-74.2404 84.5005-74.2456Q82.4956-74.2507 81.1422-72.8453Z"/>
  </g>
  <g id="Regular-M" transform="matrix(1 0 0 1 1400.14 1126)">
   <path d="M12.3545-3.38174Q11.2148-2.23164 11.2148-0.599868Q11.2148 1.03191 12.3545 2.17137Q13.5046 3.32164 15.1416 3.32164Q16.7786 3.32164 17.9287 2.17137L87.0529-67.0043Q88.203-68.1546 88.1976-69.7863Q88.1923-71.418 87.0529-72.5576Q85.9544-73.7077 84.2915-73.7077Q82.6286-73.7077 81.5408-72.5576Z"/>
  </g>
  <g id="Light-M" transform="matrix(1 0 0 1 1105.02 1126)">
   <path d="M12.0808-3.41595Q11.2148-2.52258 11.2148-1.27574Q11.2148-0.0289093 12.0808 0.836578Q12.9742 1.73042 14.2347 1.73042Q15.4953 1.73042 16.3886 0.836578L84.1441-66.9528Q85.0375-67.8467 85.0235-69.0933Q85.0096-70.3399 84.1441-71.2058Q83.2851-72.0992 82.0072-72.0992Q80.7292-72.0992 79.8981-71.2058Z"/>
  </g>
  <g id="Thin-M" transform="matrix(1 0 0 1 810.415 1126)">
   <path d="M11.7188-3.4612Q11.2148-2.90736 11.2148-2.16964Q11.2148-1.43193 11.7188-0.92879Q12.2727-0.37411 13.0353-0.37411Q13.7979-0.37411 14.3518-0.92879L80.297-66.8848Q80.8509-67.4395 80.8255-68.1768Q80.8002-68.9141 80.297-69.418Q79.7548-69.9719 78.9859-69.9719Q78.217-69.9719 77.7255-69.418Z"/>
  </g>
  <g id="Ultralight-M" transform="matrix(1 0 0 1 514.781 1126)">
   <path d="M11.5334-3.48437Q11.2148-3.10445 11.2148-2.6275Q11.2148-2.15054 11.5334-1.833Q11.9134-1.45204 12.421-1.45204Q12.9286-1.45204 13.3085-1.833L78.3266-66.8499Q78.7065-67.2309 78.6753-67.7073Q78.6441-68.1838 78.3266-68.5023Q77.9466-68.8823 77.4385-68.8823Q76.9304-68.8823 76.6127-68.5023Z"/>
  </g>
  <g id="Black-S" transform="matrix(1 0 0 1 2891.99 696)">
   <path d="M10.8887-14.7461Q8.78906-12.6465 8.78906-9.7168Q8.78906-6.78711 10.8887-4.6875Q12.9883-2.63672 15.8936-2.6123Q18.7988-2.58789 20.8984-4.6875L71.9238-55.7129Q74.0234-57.8125 74.0234-60.7422Q74.0234-63.6719 71.9238-65.7715Q69.8242-67.8223 66.9189-67.8467Q64.0137-67.8711 61.9141-65.7715Z"/>
  </g>
  <g id="Heavy-S" transform="matrix(1 0 0 1 2595.68 696)">
   <path d="M10.6351-13.6858Q8.78906-11.8398 8.78906-9.25582Q8.78906-6.67186 10.6351-4.82579Q12.4812-3.01703 15.0465-2.99837Q17.6118-2.97972 19.4579-4.82579L71.3822-56.7616Q73.2282-58.6077 73.2282-61.1916Q73.2282-63.7756 71.3822-65.6217Q69.5476-67.4304 66.9766-67.4491Q64.4055-67.4677 62.571-65.6217Z"/>
  </g>
  <g id="Bold-S" transform="matrix(1 0 0 1 2299.41 696)">
   <path d="M10.3516-12.5Q8.78906-10.9375 8.78906-8.74023Q8.78906-6.54297 10.3516-4.98047Q11.9141-3.44238 14.0991-3.43018Q16.2842-3.41797 17.8467-4.98047L70.7764-57.9346Q72.3389-59.4971 72.3389-61.6943Q72.3389-63.8916 70.7764-65.4541Q69.2383-66.9922 67.041-67.0044Q64.8438-67.0166 63.3057-65.4541Z"/>
  </g>
  <g id="Semibold-S" transform="matrix(1 0 0 1 2003.01 696)">
   <path d="M10.1561-11.6824Q8.78906-10.3154 8.78906-8.38477Q8.78906-6.4541 10.1561-5.08711Q11.523-3.73564 13.4459-3.72788Q15.3688-3.72012 16.7358-5.08711L70.3587-58.7433Q71.7257-60.1103 71.7257-62.0409Q71.7257-63.9716 70.3587-65.3386Q69.025-66.69 67.0854-66.6978Q65.1459-66.7056 63.8122-65.3386Z"/>
  </g>
  <g id="Medium-S" transform="matrix(1 0 0 1 1706.53 696)">
   <path d="M10.0078-11.0625Q8.78906-9.84375 8.78906-8.11523Q8.78906-6.38672 10.0078-5.16797Q11.2266-3.95801 12.9507-3.95361Q14.6748-3.94922 15.8936-5.16797L70.042-59.3564Q71.2607-60.5752 71.2607-62.3037Q71.2607-64.0322 70.042-65.251Q68.8633-66.4609 67.1191-66.4653Q65.375-66.4697 64.1963-65.251Z"/>
  </g>
  <g id="Regular-S" transform="matrix(1 0 0 1 1410.12 696)">
   <path d="M9.81445-10.2539Q8.78906-9.22852 8.78906-7.76367Q8.78906-6.29883 9.81445-5.27344Q10.8398-4.24805 12.3047-4.24805Q13.7695-4.24805 14.7949-5.27344L69.6289-60.1562Q70.6543-61.1816 70.6543-62.6465Q70.6543-64.1113 69.6289-65.1367Q68.6523-66.1621 67.1631-66.1621Q65.6738-66.1621 64.6973-65.1367Z"/>
  </g>
  <g id="Light-S" transform="matrix(1 0 0 1 1114.82 696)">
   <path d="M9.57235-10.2842Q8.78906-9.48588 8.78906-8.36156Q8.78906-7.23724 9.57235-6.45421Q10.3706-5.65567 11.5025-5.65567Q12.6343-5.65567 13.4326-6.45421L67.0558-60.1107Q67.8541-60.9093 67.8464-62.0335Q67.8388-63.1577 67.0558-63.9409Q66.291-64.7392 65.1423-64.7392Q63.9936-64.7392 63.2441-63.9409Z"/>
  </g>
  <g id="Thin-S" transform="matrix(1 0 0 1 819.97 696)">
   <path d="M9.25214-10.3242Q8.78906-9.82627 8.78906-9.15232Q8.78906-8.47837 9.25214-8.01588Q9.75007-7.51737 10.4414-7.51737Q11.1328-7.51737 11.6307-8.01588L63.6526-60.0505Q64.1505-60.549 64.1328-61.2227Q64.1151-61.8963 63.6526-62.3594Q63.168-62.8574 62.4697-62.8574Q61.7713-62.8574 61.3222-62.3594Z"/>
  </g>
  <g id="Ultralight-S" transform="matrix(1 0 0 1 524.213 696)">
   <path d="M9.08813-10.3447Q8.78906-10.0006 8.78906-9.55734Q8.78906-9.11407 9.08813-8.81577Q9.43222-8.47092 9.89799-8.47092Q10.3638-8.47092 10.7079-8.81577L61.9095-60.0197Q62.2536-60.3645 62.2307-60.8074Q62.2078-61.2503 61.9095-61.5494Q61.5685-61.8935 61.1008-61.8935Q60.6331-61.8935 60.3378-61.5494Z"/>
  </g>
 </g>
</svg>
