<svg width="77" height="78" viewBox="0 0 77 78" fill="none" xmlns="http://www.w3.org/2000/svg">
<g clip-path="url(#clip0_0_3)">
<path d="M37.1971 75.0227C37.2183 75.3259 37.3334 75.582 37.5424 75.7909C37.7513 75.9999 37.9966 76.1042 38.2782 76.1038C38.603 76.1042 38.8751 75.9946 39.0947 75.775C39.3143 75.5554 39.4239 75.2833 39.4235 74.9585L39.4219 2.54679C39.4216 2.22209 39.3116 1.9607 39.092 1.7627C38.8725 1.5647 38.6219 1.46559 38.3402 1.46519C38.0173 1.46369 37.7456 1.57319 37.5251 1.79369C37.3046 2.01419 37.2059 2.27509 37.2289 2.57649L37.1971 75.0227Z" fill="#AAB3BB"/>
</g>
<defs>
<clipPath id="clip0_0_3">
<rect width="77" height="76" fill="white" transform="translate(0.500002 77.5) rotate(-90)"/>
</clipPath>
</defs>
</svg>
