<svg width="74" height="73" viewBox="0 0 74 73" fill="none" xmlns="http://www.w3.org/2000/svg">
<path d="M6.64002 39.7246L33.3978 39.8711C33.7234 39.8711 33.9431 39.9281 34.057 40.042C34.171 40.1559 34.2279 40.3594 34.2279 40.6523L34.3255 67.2637C34.3255 68.8262 34.7243 70.0876 35.5218 71.0479C36.3194 72.0081 37.3122 72.5941 38.5004 72.8057C39.6886 73.0173 40.8686 72.8057 42.0404 72.1709C43.2123 71.5361 44.1563 70.4375 44.8724 68.875L72.5091 9.207C73.1927 7.67706 73.4532 6.2936 73.2904 5.0566C73.1276 3.81966 72.6312 2.82683 71.8011 2.0781C70.9711 1.32943 69.9213 0.906264 68.6517 0.808597C67.3822 0.710931 65.9987 1.0039 64.5013 1.6875L4.44272 29.4707C3.07555 30.0892 2.11528 30.9599 1.5619 32.083C1.00851 33.2061 0.829478 34.3535 1.02479 35.5254C1.2201 36.6973 1.78976 37.682 2.73377 38.4795C3.6778 39.277 4.97989 39.6921 6.64002 39.7246Z" fill="#6A7785"/>
</svg>
