<svg width="72" height="72" viewBox="0 0 72 72" fill="none" xmlns="http://www.w3.org/2000/svg">
<path d="M19.7265 51.7578C23.5026 55.5339 27.4577 58.9274 31.5918 61.9385C35.7259 64.9495 39.8437 67.334 43.9453 69.0918C48.0469 70.8496 51.9368 71.7285 55.6152 71.7285C58.0566 71.7285 60.3434 71.2809 62.4755 70.3857C64.6077 69.4906 66.5365 68.0664 68.2617 66.1133C69.3034 64.9414 70.1009 63.7126 70.6543 62.4268C71.2077 61.141 71.4843 59.847 71.4843 58.5449C71.4843 57.5358 71.289 56.5837 70.8984 55.6885C70.5078 54.7933 69.8568 54.0365 68.9453 53.418L57.1777 45.0195C55.3223 43.7174 53.7272 43.0664 52.3925 43.0664C51.4811 43.0664 50.6267 43.3105 49.8291 43.7988C49.0316 44.2871 48.1934 44.9545 47.3144 45.8008L44.6289 48.4863C44.2383 48.877 43.75 49.0723 43.164 49.0723C42.8711 49.0723 42.5863 49.0235 42.3095 48.9258C42.0329 48.8281 41.7969 48.7305 41.6015 48.6328C40.3646 47.9818 38.8265 46.8588 36.9873 45.2637C35.1481 43.6686 33.3008 41.9434 31.4453 40.0879C29.6224 38.2324 27.9053 36.3851 26.2939 34.5459C24.6826 32.7067 23.5514 31.1849 22.9004 29.9805C22.8028 29.7526 22.7051 29.5085 22.6074 29.2481C22.5098 28.9876 22.4609 28.6946 22.4609 28.3691C22.4609 27.7832 22.6562 27.2949 23.0468 26.9043L25.7324 24.2188C26.5788 23.3399 27.2542 22.5016 27.7588 21.7041C28.2634 20.9066 28.5156 20.0684 28.5156 19.1895C28.5156 17.8223 27.8483 16.211 26.5136 14.3555L18.164 2.6367C17.513 1.72524 16.7237 1.05794 15.7959 0.634804C14.8682 0.211604 13.8835 0 12.8418 0C10.1726 0 7.69861 1.10677 5.41994 3.3203C3.53194 5.0781 2.15661 7.03937 1.29394 9.2041C0.431314 11.3688 0 13.6719 0 16.1133C0 19.7917 0.862647 23.6654 2.58794 27.7344C4.31314 31.8034 6.66501 35.8887 9.64354 39.9902C12.6221 44.0918 15.9831 48.0143 19.7265 51.7578Z" fill="#6A7785"/>
</svg>
