<svg width="87" height="88" viewBox="0 0 87 88" fill="none" xmlns="http://www.w3.org/2000/svg">
<g filter="url(#filter0_d_0_72)">
<path d="M43.4043 79.1504C48.8079 79.1504 53.8861 78.125 58.6387 76.0742C63.3913 74.0234 67.5824 71.1751 71.212 67.5293C74.8415 63.8834 77.6898 59.6842 79.7569 54.9316C81.8239 50.179 82.8575 45.1172 82.8575 39.7461C82.8575 34.375 81.8239 29.3132 79.7569 24.5605C77.6898 19.8079 74.8333 15.6087 71.1875 11.9629C67.5417 8.31703 63.3425 5.46873 58.5899 3.418C53.8373 1.3672 48.7591 0.341797 43.3555 0.341797C37.9844 0.341797 32.9226 1.3672 28.17 3.418C23.4174 5.46873 19.2344 8.31703 15.6211 11.9629C12.0078 15.6087 9.16763 19.8079 7.10058 24.5605C5.03353 29.3132 4 34.375 4 39.7461C4 45.1172 5.03353 50.179 7.10058 54.9316C9.16763 59.6842 12.0159 63.8834 15.6455 67.5293C19.2751 71.1751 23.4662 74.0234 28.2188 76.0742C32.9714 78.125 38.0332 79.1504 43.4043 79.1504Z" fill="white"/>
<path d="M38.2932 51.5733C37.5273 52.0374 36.787 52.1229 36.0722 51.8298C35.3574 51.5367 35 51.0115 35 50.2542V29.6974C35 28.9401 35.3765 28.4271 36.1296 28.1583C36.8827 27.8896 37.6039 27.9629 38.2932 28.3782L56.0232 38.3085C56.6614 38.6749 56.9869 39.2307 56.9996 39.9758C57.0124 40.7209 56.6869 41.2766 56.0232 41.643L38.2932 51.5733Z" fill="black"/>
</g>
<defs>
<filter id="filter0_d_0_72" x="0" y="0.341797" width="86.8575" height="86.8086" filterUnits="userSpaceOnUse" color-interpolation-filters="sRGB">
<feFlood flood-opacity="0" result="BackgroundImageFix"/>
<feColorMatrix in="SourceAlpha" type="matrix" values="0 0 0 0 0 0 0 0 0 0 0 0 0 0 0 0 0 0 127 0" result="hardAlpha"/>
<feOffset dy="4"/>
<feGaussianBlur stdDeviation="2"/>
<feComposite in2="hardAlpha" operator="out"/>
<feColorMatrix type="matrix" values="0 0 0 0 0 0 0 0 0 0 0 0 0 0 0 0 0 0 0.25 0"/>
<feBlend mode="normal" in2="BackgroundImageFix" result="effect1_dropShadow_0_72"/>
<feBlend mode="normal" in="SourceGraphic" in2="effect1_dropShadow_0_72" result="shape"/>
</filter>
</defs>
</svg>
